<svg id="Layer_1" data-name="Layer 1" xmlns="http://www.w3.org/2000/svg" viewBox="0 0 348.21 113.79"><defs><style>.cls-1{fill:#6d6e70;}.cls-2{fill:#383838;}.cls-3{fill:#ff6c2c;}</style></defs><title>Final_Logo_Final_RGB</title><rect class="cls-1" x="113.32" width="0.84" height="113.79"/><path class="cls-1" d="M366.87,338.87c0,2.75,1.36,4.36,3.46,4.36a2.64,2.64,0,0,0,3-2.79v-0.21l3.94,0c0,0.17,0,.38.06,0.59,0,3.75-3,5.43-6.87,5.43-4.61,0-7.63-2.54-7.63-7.42s3-7.46,7.63-7.46c5.89,0,6.89,3.16,6.89,5.2a4.2,4.2,0,0,1-.08.82l-3.94,0v-0.23c0-1.63-.9-2.77-3-2.77S366.87,336.08,366.87,338.87Z" transform="translate(-222.15 -249.1)"/><path class="cls-1" d="M381.2,338.87c0-4.72,2.7-7.46,7.61-7.46s7.67,2.74,7.67,7.46-2.79,7.42-7.67,7.42S381.2,343.56,381.2,338.87Zm11.21,0c0-2.93-1.3-4.4-3.6-4.4s-3.58,1.47-3.58,4.4,1.3,4.36,3.58,4.36S392.41,341.8,392.41,338.87Z" transform="translate(-222.15 -249.1)"/><path class="cls-1" d="M401.1,331.62h4.07l4.5,7.1a23,23,0,0,1,1.43,2.66h0.21A26.94,26.94,0,0,1,411,338v-6.39h3.86v14.46h-4l-4.59-7a21.69,21.69,0,0,1-1.43-2.79h-0.19a24.07,24.07,0,0,1,.29,3.52v6.29H401.1V331.62Z" transform="translate(-222.15 -249.1)"/><path class="cls-1" d="M423.38,341.24v0.36c0,1,.73,1.89,2.53,1.89,1.4,0,2.14-.52,2.14-1.43,0-.61-0.46-1-1.59-1.32l-2.93-.88c-2.22-.67-3.77-1.72-3.77-4.09,0-2.58,2.07-4.36,6.05-4.36,5,0,5.87,2.49,5.87,4a3.73,3.73,0,0,1-.06.69l-3.79,0a2.74,2.74,0,0,0,0-.38c0-.86-0.5-1.53-2.14-1.53-1.36,0-1.95.55-1.95,1.32s0.52,1,1.49,1.32l3.1,0.9c2.26,0.65,3.79,1.68,3.79,4.06,0,2.7-2.31,4.44-6.41,4.44-5.43,0-6.29-2.75-6.29-4.36a3.48,3.48,0,0,1,.06-0.65Z" transform="translate(-222.15 -249.1)"/><path class="cls-1" d="M439.93,334.66h-4.46v-3h12.76v3h-4.46v11.42h-3.83V334.66Z" transform="translate(-222.15 -249.1)"/><path class="cls-1" d="M452.37,331.62h6.12c4.3,0,6,1.84,6,4.72a4.15,4.15,0,0,1-2.87,4.15v0.17c0.82,0.88,3.14,4.59,3.88,4.95v0.48h-4.17c-0.82-.5-2.75-4.17-3.37-4.76h-1.76v4.76h-3.85V331.62Zm5.78,6.89c1.78,0,2.39-.76,2.39-1.95s-0.61-2-2.39-2h-2v3.94h2Z" transform="translate(-222.15 -249.1)"/><path class="cls-1" d="M469.53,331.62h3.83v7.9c0,2.83,1,3.71,2.91,3.71s2.91-.88,2.91-3.71v-7.9H483v7.94c0,4.9-2.33,6.73-6.75,6.73s-6.75-1.82-6.75-6.73v-7.94Z" transform="translate(-222.15 -249.1)"/><path class="cls-1" d="M491.58,338.87c0,2.75,1.36,4.36,3.46,4.36a2.64,2.64,0,0,0,3-2.79v-0.21l3.94,0c0,0.17,0,.38.06,0.59,0,3.75-3,5.43-6.87,5.43-4.61,0-7.63-2.54-7.63-7.42s3-7.46,7.63-7.46c5.89,0,6.89,3.16,6.89,5.2a4.2,4.2,0,0,1-.08.82l-3.94,0v-0.23c0-1.63-.9-2.77-3-2.77S491.58,336.08,491.58,338.87Z" transform="translate(-222.15 -249.1)"/><path class="cls-1" d="M509.87,334.66H505.4v-3h12.76v3H513.7v11.42h-3.83V334.66Z" transform="translate(-222.15 -249.1)"/><path class="cls-1" d="M522.31,331.62h3.83v14.46h-3.83V331.62Z" transform="translate(-222.15 -249.1)"/><path class="cls-1" d="M530.8,338.87c0-4.72,2.7-7.46,7.61-7.46s7.67,2.74,7.67,7.46-2.79,7.42-7.67,7.42S530.8,343.56,530.8,338.87Zm11.21,0c0-2.93-1.3-4.4-3.6-4.4s-3.58,1.47-3.58,4.4,1.3,4.36,3.58,4.36S542,341.8,542,338.87Z" transform="translate(-222.15 -249.1)"/><path class="cls-1" d="M550.7,331.62h4.06l4.51,7.1a23.24,23.24,0,0,1,1.43,2.66h0.21a26.66,26.66,0,0,1-.29-3.37v-6.39h3.85v14.46h-4l-4.59-7a21.5,21.5,0,0,1-1.43-2.79h-0.19a23.87,23.87,0,0,1,.29,3.52v6.29H550.7V331.62Z" transform="translate(-222.15 -249.1)"/><rect class="cls-2" x="189.05" y="16.82" width="12.68" height="48.97"/><path class="cls-2" d="M423.87,314.89H411.19v-49h12.68v49Z" transform="translate(-222.15 -249.1)"/><path class="cls-2" d="M563.82,272c-4.3-4-10.85-6.06-19.45-6.06H524v49h20.4c17.49,0,26-8,26-24.48C570.35,282.24,568.15,276,563.82,272Zm-20.17,32.87h-7V275.74h7c9.18,0,13.45,4.64,13.45,14.6S552.83,304.86,543.65,304.86Z" transform="translate(-222.15 -249.1)"/><polygon class="cls-2" points="272.56 16.82 259.88 16.82 259.88 65.79 293.16 65.79 293.16 55.69 272.56 55.69 272.56 16.82"/><polygon class="cls-2" points="175.41 38.44 154.79 38.44 154.79 26.78 178.56 26.78 178.56 16.82 142.04 16.82 142.04 65.79 154.79 65.79 154.79 48.4 175.41 48.4 175.41 38.44"/><polygon class="cls-2" points="225.41 45.89 245.6 45.89 245.6 36.15 225.41 36.15 225.41 26.78 249.25 26.78 249.25 16.82 212.74 16.82 212.74 65.79 249.25 65.79 249.25 55.69 225.41 55.69 225.41 45.89"/><rect class="cls-3" y="22.43" width="19.54" height="69.02"/><rect class="cls-3" x="30.74" y="14.43" width="24.07" height="85.01"/><rect class="cls-3" x="65.94" y="22.43" width="19.54" height="69.02"/></svg>